<svg width="292" height="146" viewBox="0 0 292 146" fill="none" xmlns="http://www.w3.org/2000/svg">
<g clip-path="url(#clip0)">
<line y1="120.5" x2="292.001" y2="120.5" stroke="#D9E2EB"/>
<path d="M144.457 56.8332H123.643C121.631 56.8332 120 55.1916 120 53.1667V49.4999H147.956L144.457 56.8332Z" fill="#D3DCFB"/>
<path d="M167.359 27.5V42.9042V53.1666H123.643C121.631 53.1666 120 51.525 120 49.5V27.5L145.501 18.3333L167.359 27.5Z" fill="#EBF5FC"/>
<path d="M126.433 34.8333H124.498C124.026 34.8333 123.644 34.4485 123.644 33.9739V32.026C123.644 31.5514 124.026 31.1666 124.498 31.1666H126.433C126.904 31.1666 127.287 31.5514 127.287 32.026V33.9739C127.287 34.4485 126.904 34.8333 126.433 34.8333Z" fill="#3C58A0"/>
<path d="M133.718 34.8332H131.782C131.311 34.8332 130.929 34.4484 130.929 33.9738V32.0259C130.929 31.5513 131.311 31.1666 131.782 31.1666H133.718C134.189 31.1666 134.571 31.5513 134.571 32.0259V33.9738C134.571 34.4484 134.189 34.8332 133.718 34.8332Z" fill="#3C58A0"/>
<path d="M141.004 34.8332H139.068C138.597 34.8332 138.215 34.4484 138.215 33.9738V32.0259C138.215 31.5513 138.597 31.1666 139.068 31.1666H141.004C141.475 31.1666 141.857 31.5513 141.857 32.0259V33.9738C141.857 34.4484 141.475 34.8332 141.004 34.8332Z" fill="#3C58A0"/>
<path d="M148.289 34.8332H146.354C145.883 34.8332 145.5 34.4484 145.5 33.9738V32.0259C145.5 31.5513 145.883 31.1666 146.354 31.1666H148.289C148.761 31.1666 149.143 31.5513 149.143 32.0259V33.9738C149.143 34.4484 148.761 34.8332 148.289 34.8332Z" fill="#3C58A0"/>
<path d="M155.573 34.8332H153.638C153.166 34.8332 152.784 34.4484 152.784 33.9738V32.0259C152.784 31.5513 153.166 31.1666 153.638 31.1666H155.573C156.045 31.1666 156.427 31.5513 156.427 32.0259V33.9738C156.427 34.4484 156.045 34.8332 155.573 34.8332Z" fill="#3C58A0"/>
<path d="M162.859 34.8332H160.924C160.452 34.8332 160.07 34.4484 160.07 33.9738V32.0259C160.07 31.5513 160.452 31.1666 160.924 31.1666H162.859C163.33 31.1666 163.713 31.5513 163.713 32.0259V33.9738C163.713 34.4484 163.33 34.8332 162.859 34.8332Z" fill="#3C58A0"/>
<path d="M126.433 42.1666H124.498C124.026 42.1666 123.644 41.7818 123.644 41.3072V39.3593C123.644 38.8848 124.026 38.5 124.498 38.5H126.433C126.904 38.5 127.287 38.8848 127.287 39.3593V41.3072C127.287 41.7819 126.904 42.1666 126.433 42.1666Z" fill="#3C58A0"/>
<path d="M133.718 42.1666H131.782C131.311 42.1666 130.929 41.7818 130.929 41.3072V39.3593C130.929 38.8848 131.311 38.5 131.782 38.5H133.718C134.189 38.5 134.571 38.8848 134.571 39.3593V41.3072C134.571 41.7819 134.189 42.1666 133.718 42.1666Z" fill="#3C58A0"/>
<path d="M141.004 42.1666H139.068C138.597 42.1666 138.215 41.7818 138.215 41.3072V39.3593C138.215 38.8848 138.597 38.5 139.068 38.5H141.004C141.475 38.5 141.857 38.8848 141.857 39.3593V41.3072C141.857 41.7819 141.475 42.1666 141.004 42.1666Z" fill="#3C58A0"/>
<path d="M149.143 42.1666V39.4166C149.143 38.9103 148.736 38.5 148.233 38.5H146.411C145.908 38.5 145.5 38.9103 145.5 39.4166V41.25C145.5 41.7563 145.908 42.1666 146.411 42.1666H149.143Z" fill="#3C58A0"/>
<path d="M126.433 49.5H124.498C124.026 49.5 123.644 49.1152 123.644 48.6406V46.6928C123.644 46.2182 124.026 45.8334 124.498 45.8334H126.433C126.904 45.8334 127.287 46.2182 127.287 46.6928V48.6406C127.287 49.1152 126.904 49.5 126.433 49.5Z" fill="#3C58A0"/>
<path d="M133.718 49.5H131.782C131.311 49.5 130.929 49.1152 130.929 48.6406V46.6928C130.929 46.2182 131.311 45.8334 131.782 45.8334H133.718C134.189 45.8334 134.571 46.2182 134.571 46.6928V48.6406C134.571 49.1152 134.189 49.5 133.718 49.5Z" fill="#3C58A0"/>
<path d="M141.004 49.5H139.068C138.597 49.5 138.215 49.1152 138.215 48.6406V46.6928C138.215 46.2182 138.597 45.8334 139.068 45.8334H141.004C141.475 45.8334 141.857 46.2182 141.857 46.6928V48.6406C141.857 49.1152 141.475 49.5 141.004 49.5Z" fill="#3C58A0"/>
<path d="M162.834 31.1666H160.95C160.836 31.1666 160.727 31.1892 160.627 31.2288C160.953 31.3584 161.184 31.6776 161.184 32.0519V33.9479C161.184 34.3221 160.953 34.6414 160.627 34.771C160.727 34.8107 160.836 34.8333 160.95 34.8333H162.834C163.319 34.8333 163.713 34.4369 163.713 33.948V32.052C163.713 31.563 163.319 31.1666 162.834 31.1666V31.1666Z" fill="#2A428C"/>
<path d="M155.548 31.1666H153.665C153.551 31.1666 153.442 31.1892 153.342 31.2288C153.668 31.3584 153.899 31.6776 153.899 32.0519V33.9479C153.899 34.3221 153.668 34.6414 153.342 34.771C153.442 34.8107 153.551 34.8333 153.665 34.8333H155.548C156.034 34.8333 156.428 34.4369 156.428 33.948V32.052C156.428 31.563 156.034 31.1666 155.548 31.1666V31.1666Z" fill="#2A428C"/>
<path d="M148.264 31.1666H146.38C146.266 31.1666 146.158 31.1892 146.058 31.2288C146.384 31.3584 146.615 31.6776 146.615 32.0519V33.9479C146.615 34.3221 146.384 34.6414 146.058 34.771C146.158 34.8107 146.266 34.8333 146.38 34.8333H148.264C148.75 34.8333 149.144 34.4369 149.144 33.948V32.052C149.143 31.563 148.75 31.1666 148.264 31.1666V31.1666Z" fill="#2A428C"/>
<path d="M140.978 31.1666H139.095C138.981 31.1666 138.872 31.1892 138.772 31.2288C139.098 31.3584 139.329 31.6776 139.329 32.0519V33.9479C139.329 34.3221 139.098 34.6414 138.772 34.771C138.872 34.8107 138.981 34.8333 139.095 34.8333H140.978C141.464 34.8333 141.858 34.4369 141.858 33.948V32.052C141.858 31.563 141.464 31.1666 140.978 31.1666V31.1666Z" fill="#2A428C"/>
<path d="M133.693 31.1666H131.809C131.695 31.1666 131.587 31.1892 131.487 31.2288C131.813 31.3584 132.044 31.6776 132.044 32.0519V33.9479C132.044 34.3221 131.812 34.6414 131.487 34.771C131.587 34.8107 131.695 34.8333 131.809 34.8333H133.693C134.178 34.8333 134.572 34.4369 134.572 33.948V32.052C134.572 31.563 134.178 31.1666 133.693 31.1666V31.1666Z" fill="#2A428C"/>
<path d="M126.408 31.1666H124.524C124.41 31.1666 124.301 31.1892 124.201 31.2288C124.527 31.3584 124.758 31.6776 124.758 32.0519V33.9479C124.758 34.3221 124.527 34.6414 124.201 34.771C124.301 34.8107 124.41 34.8333 124.524 34.8333H126.408C126.893 34.8333 127.287 34.4369 127.287 33.948V32.052C127.287 31.563 126.893 31.1666 126.408 31.1666V31.1666Z" fill="#2A428C"/>
<path d="M126.408 38.4999H124.524C124.41 38.4999 124.301 38.5225 124.201 38.5621C124.527 38.6917 124.758 39.0109 124.758 39.3852V41.2813C124.758 41.6555 124.527 41.9748 124.201 42.1044C124.301 42.1441 124.41 42.1667 124.524 42.1667H126.408C126.893 42.1667 127.287 41.7703 127.287 41.2814V39.3853C127.287 38.8963 126.893 38.4999 126.408 38.4999V38.4999Z" fill="#2A428C"/>
<path d="M126.408 45.8334H124.524C124.41 45.8334 124.301 45.856 124.201 45.8956C124.527 46.0252 124.758 46.3444 124.758 46.7187V48.6148C124.758 48.9891 124.527 49.3083 124.201 49.4379C124.301 49.4776 124.41 49.5002 124.524 49.5002H126.408C126.893 49.5002 127.287 49.1038 127.287 48.6149V46.7188C127.287 46.2297 126.893 45.8334 126.408 45.8334V45.8334Z" fill="#2A428C"/>
<path d="M133.693 38.4999H131.809C131.695 38.4999 131.587 38.5225 131.487 38.5621C131.813 38.6917 132.044 39.0109 132.044 39.3852V41.2813C132.044 41.6555 131.812 41.9748 131.487 42.1044C131.587 42.1441 131.695 42.1667 131.809 42.1667H133.693C134.178 42.1667 134.572 41.7703 134.572 41.2814V39.3853C134.572 38.8963 134.178 38.4999 133.693 38.4999V38.4999Z" fill="#2A428C"/>
<path d="M133.693 45.8334H131.809C131.695 45.8334 131.587 45.856 131.487 45.8956C131.813 46.0252 132.044 46.3444 132.044 46.7187V48.6148C132.044 48.9891 131.812 49.3083 131.487 49.4379C131.587 49.4776 131.695 49.5002 131.809 49.5002H133.693C134.178 49.5002 134.572 49.1038 134.572 48.6149V46.7188C134.572 46.2297 134.178 45.8334 133.693 45.8334V45.8334Z" fill="#2A428C"/>
<path d="M140.978 38.4999H139.095C138.981 38.4999 138.872 38.5225 138.772 38.5621C139.098 38.6917 139.329 39.0109 139.329 39.3852V41.2813C139.329 41.6555 139.098 41.9748 138.772 42.1044C138.872 42.1441 138.981 42.1667 139.095 42.1667H140.978C141.464 42.1667 141.858 41.7703 141.858 41.2814V39.3853C141.858 38.8963 141.464 38.4999 140.978 38.4999V38.4999Z" fill="#2A428C"/>
<path d="M149.144 42.1665V39.3852C149.144 38.8962 148.75 38.4999 148.264 38.4999H146.38C146.266 38.4999 146.158 38.5225 146.058 38.5621C146.384 38.6917 146.615 39.0109 146.615 39.3852V41.2813C146.615 41.6555 146.384 41.9748 146.058 42.1044C146.158 42.1441 146.266 42.1667 146.38 42.1667H149.144V42.1665Z" fill="#2A428C"/>
<path d="M140.978 45.8334H139.095C138.981 45.8334 138.872 45.856 138.772 45.8956C139.098 46.0252 139.329 46.3444 139.329 46.7187V48.6148C139.329 48.9891 139.098 49.3083 138.772 49.4379C138.872 49.4776 138.981 49.5002 139.095 49.5002H140.978C141.464 49.5002 141.858 49.1038 141.858 48.6149V46.7188C141.858 46.2297 141.464 45.8334 140.978 45.8334V45.8334Z" fill="#2A428C"/>
<path d="M164.828 26.4388V42.9041V53.1667H167.358V42.9041V27.5L164.828 26.4388Z" fill="#D3DCFB"/>
<path d="M167.359 27.5V18.3332C167.359 16.3082 165.728 14.6667 163.716 14.6667H123.643C121.631 14.6667 120 16.3082 120 18.3332V27.5H167.359Z" fill="#FF4155"/>
<path d="M131.478 19.1633H129.107C128.652 19.1633 128.282 18.7918 128.282 18.3334C128.282 17.875 128.652 17.5034 129.107 17.5034H131.478C131.933 17.5034 132.303 17.875 132.303 18.3334C132.303 18.7918 131.933 19.1633 131.478 19.1633V19.1633Z" fill="#E80054"/>
<path d="M137.303 19.1634H134.932C134.477 19.1634 134.108 18.7918 134.108 18.3335C134.108 17.8751 134.477 17.5035 134.932 17.5035H137.303C137.759 17.5035 138.128 17.8751 138.128 18.3335C138.128 18.7918 137.759 19.1634 137.303 19.1634V19.1634Z" fill="#E80054"/>
<path d="M152.424 19.1634H150.053C149.598 19.1634 149.229 18.7918 149.229 18.3335C149.229 17.8751 149.598 17.5035 150.053 17.5035H152.424C152.88 17.5035 153.249 17.8751 153.249 18.3335C153.249 18.7918 152.88 19.1634 152.424 19.1634Z" fill="#E80054"/>
<path d="M158.249 19.1634H155.878C155.423 19.1634 155.054 18.7918 155.054 18.3335C155.054 17.8751 155.423 17.5035 155.878 17.5035H158.249C158.705 17.5035 159.074 17.8751 159.074 18.3335C159.074 18.7918 158.705 19.1634 158.249 19.1634Z" fill="#E80054"/>
<path d="M135.482 17.875C135.482 19.1407 134.462 20.1667 133.205 20.1667C131.948 20.1667 130.928 19.1407 130.928 17.875V13.2916C130.928 12.026 131.947 11 133.205 11C134.462 11 135.481 12.026 135.481 13.2916V17.875H135.482Z" fill="#EBF5FC"/>
<path d="M156.429 17.875C156.429 19.1407 155.409 20.1667 154.152 20.1667C152.895 20.1667 151.875 19.1407 151.875 17.875V13.2916C151.875 12.026 152.895 11 154.152 11C155.409 11 156.429 12.026 156.429 13.2916V17.875H156.429Z" fill="#EBF5FC"/>
<path d="M154.152 11C153.684 11 153.25 11.1422 152.889 11.3854C153.5 11.7964 153.902 12.4965 153.902 13.2917V17.875C153.902 18.6701 153.5 19.3703 152.889 19.7813C153.25 20.0244 153.684 20.1668 154.152 20.1668C155.409 20.1668 156.428 19.1408 156.428 17.8751V13.2916C156.429 12.026 155.409 11 154.152 11V11Z" fill="#D3DCFB"/>
<path d="M133.205 11C132.737 11 132.303 11.1422 131.942 11.3854C132.553 11.7964 132.955 12.4965 132.955 13.2917V17.875C132.955 18.6701 132.553 19.3703 131.942 19.7813C132.303 20.0244 132.737 20.1668 133.205 20.1668C134.462 20.1668 135.481 19.1408 135.481 17.8751V13.2916C135.482 12.026 134.462 11 133.205 11V11Z" fill="#D3DCFB"/>
<path d="M163.716 14.6667H161.187C163.198 14.6667 164.829 16.3082 164.829 18.3332V27.5001H167.359V18.3334C167.359 16.3083 165.728 14.6667 163.716 14.6667V14.6667Z" fill="#E80054"/>
<path d="M120 23.0033H167.359V24.6633H120V23.0033Z" fill="#E80054"/>
<path d="M157.34 66C164.884 66 171 59.8439 171 52.2499C171 44.656 164.884 38.4999 157.34 38.4999C149.796 38.4999 143.68 44.656 143.68 52.2499C143.68 59.8439 149.796 66 157.34 66Z" fill="#4FABF7"/>
<path d="M157.339 62.3335C162.872 62.3335 167.357 57.819 167.357 52.2501C167.357 46.6812 162.872 42.1667 157.339 42.1667C151.807 42.1667 147.322 46.6812 147.322 52.2501C147.322 57.819 151.807 62.3335 157.339 62.3335Z" fill="#EBF5FC"/>
<path d="M157.34 51.2466C156.885 51.2466 156.516 50.8751 156.516 50.4167V45.8333C156.516 45.3749 156.885 45.0034 157.34 45.0034C157.796 45.0034 158.165 45.3749 158.165 45.8333V50.4167C158.165 50.8751 157.796 51.2466 157.34 51.2466Z" fill="#3C58A0"/>
<path d="M161.893 53.08H159.16C158.705 53.08 158.336 52.7084 158.336 52.25C158.336 51.7916 158.705 51.4201 159.16 51.4201H161.893C162.348 51.4201 162.717 51.7916 162.717 52.25C162.717 52.7084 162.348 53.08 161.893 53.08Z" fill="#3C58A0"/>
<path d="M157.339 38.4999C156.913 38.4999 156.491 38.5206 156.075 38.5591C163.026 39.2014 168.471 45.0852 168.471 52.2499C168.471 59.4147 163.026 65.2985 156.075 65.9408C156.491 65.9792 156.913 66 157.339 66C164.883 66 170.999 59.8438 170.999 52.2499C170.999 44.6561 164.883 38.4999 157.339 38.4999Z" fill="#1886EA"/>
<path d="M157.34 42.1667C156.912 42.1667 156.49 42.1939 156.076 42.2463C161.012 42.8716 164.83 47.112 164.83 52.2501C164.83 57.3882 161.012 61.6286 156.076 62.2539C156.49 62.3063 156.912 62.3335 157.34 62.3335C162.872 62.3335 167.357 57.8189 167.357 52.2501C167.357 46.6812 162.872 42.1667 157.34 42.1667V42.1667Z" fill="#D3DCFB"/>
<path d="M157.339 54.0834C158.345 54.0834 159.161 53.2626 159.161 52.2501C159.161 51.2375 158.345 50.4167 157.339 50.4167C156.333 50.4167 155.518 51.2375 155.518 52.2501C155.518 53.2626 156.333 54.0834 157.339 54.0834Z" fill="#FFDD40"/>
<path d="M103.898 107C103.058 107 102.41 106.772 101.954 106.316C101.498 105.86 101.27 105.212 101.27 104.372V84.212C101.27 83.372 101.522 82.7 102.026 82.196C102.53 81.692 103.214 81.44 104.078 81.44C104.942 81.44 105.626 81.692 106.13 82.196C106.634 82.7 106.886 83.372 106.886 84.212V102.428H116.102C117.854 102.428 118.73 103.196 118.73 104.732C118.73 106.244 117.854 107 116.102 107H103.898ZM129.443 107.288C127.571 107.288 125.927 106.916 124.511 106.172C123.095 105.404 122.003 104.336 121.235 102.968C120.467 101.576 120.083 99.944 120.083 98.072C120.083 96.2 120.467 94.58 121.235 93.212C122.003 91.82 123.095 90.752 124.511 90.008C125.927 89.264 127.571 88.892 129.443 88.892C131.315 88.892 132.959 89.264 134.375 90.008C135.791 90.752 136.883 91.82 137.651 93.212C138.419 94.58 138.803 96.2 138.803 98.072C138.803 99.944 138.419 101.576 137.651 102.968C136.883 104.336 135.791 105.404 134.375 106.172C132.959 106.916 131.315 107.288 129.443 107.288ZM129.443 103.148C132.083 103.148 133.403 101.456 133.403 98.072C133.403 96.368 133.055 95.096 132.359 94.256C131.687 93.416 130.715 92.996 129.443 92.996C126.803 92.996 125.483 94.688 125.483 98.072C125.483 101.456 126.803 103.148 129.443 103.148ZM157.447 88.964C158.263 88.964 158.911 89.204 159.391 89.684C159.895 90.14 160.147 90.752 160.147 91.52V105.092C160.147 107.948 159.319 110.108 157.663 111.572C156.007 113.036 153.583 113.768 150.391 113.768C147.703 113.768 145.495 113.288 143.767 112.328C143.335 112.088 142.999 111.788 142.759 111.428C142.519 111.092 142.399 110.708 142.399 110.276C142.399 109.676 142.543 109.184 142.831 108.8C143.119 108.416 143.503 108.224 143.983 108.224C144.247 108.224 144.559 108.272 144.919 108.368C145.279 108.488 145.651 108.62 146.035 108.764C146.803 109.052 147.511 109.28 148.159 109.448C148.807 109.616 149.503 109.7 150.247 109.7C151.783 109.7 152.923 109.352 153.667 108.656C154.411 107.96 154.783 106.904 154.783 105.488V103.544C154.279 104.456 153.523 105.176 152.515 105.704C151.507 106.232 150.379 106.496 149.131 106.496C147.595 106.496 146.227 106.136 145.027 105.416C143.851 104.696 142.927 103.676 142.255 102.356C141.583 101.012 141.247 99.464 141.247 97.712C141.247 95.96 141.583 94.424 142.255 93.104C142.927 91.76 143.851 90.728 145.027 90.008C146.227 89.264 147.595 88.892 149.131 88.892C150.355 88.892 151.459 89.156 152.443 89.684C153.451 90.188 154.219 90.896 154.747 91.808V91.448C154.747 90.68 154.987 90.08 155.467 89.648C155.971 89.192 156.631 88.964 157.447 88.964ZM150.715 102.356C151.987 102.356 152.971 101.948 153.667 101.132C154.387 100.316 154.747 99.176 154.747 97.712C154.747 96.248 154.387 95.108 153.667 94.292C152.971 93.452 151.987 93.032 150.715 93.032C149.443 93.032 148.447 93.452 147.727 94.292C147.007 95.108 146.647 96.248 146.647 97.712C146.647 99.176 147.007 100.316 147.727 101.132C148.447 101.948 149.443 102.356 150.715 102.356ZM167.066 107.216C166.274 107.216 165.614 107 165.086 106.568C164.582 106.136 164.33 105.5 164.33 104.66V91.52C164.33 90.68 164.594 90.044 165.122 89.612C165.65 89.18 166.298 88.964 167.066 88.964C167.834 88.964 168.47 89.18 168.974 89.612C169.502 90.044 169.766 90.68 169.766 91.52V104.66C169.766 105.5 169.502 106.136 168.974 106.568C168.47 107 167.834 107.216 167.066 107.216ZM167.066 86.084C166.106 86.084 165.35 85.844 164.798 85.364C164.246 84.86 163.97 84.188 163.97 83.348C163.97 82.508 164.246 81.848 164.798 81.368C165.35 80.888 166.106 80.648 167.066 80.648C168.002 80.648 168.746 80.9 169.298 81.404C169.874 81.884 170.162 82.532 170.162 83.348C170.162 84.188 169.886 84.86 169.334 85.364C168.782 85.844 168.026 86.084 167.066 86.084ZM185.016 88.892C187.128 88.892 188.7 89.516 189.732 90.764C190.764 91.988 191.28 93.848 191.28 96.344V104.66C191.28 105.452 191.028 106.076 190.524 106.532C190.044 106.988 189.384 107.216 188.544 107.216C187.704 107.216 187.044 106.988 186.564 106.532C186.084 106.076 185.844 105.452 185.844 104.66V96.596C185.844 95.396 185.616 94.52 185.16 93.968C184.728 93.416 184.044 93.14 183.108 93.14C181.98 93.14 181.068 93.5 180.372 94.22C179.7 94.94 179.364 95.9 179.364 97.1V104.66C179.364 105.452 179.124 106.076 178.644 106.532C178.164 106.988 177.504 107.216 176.664 107.216C175.824 107.216 175.152 106.988 174.648 106.532C174.168 106.076 173.928 105.452 173.928 104.66V91.448C173.928 90.704 174.18 90.104 174.684 89.648C175.212 89.192 175.884 88.964 176.7 88.964C177.444 88.964 178.044 89.192 178.5 89.648C178.98 90.08 179.22 90.644 179.22 91.34V91.844C179.844 90.884 180.648 90.152 181.632 89.648C182.64 89.144 183.768 88.892 185.016 88.892Z" fill="#0091EA"/>
</g>
<defs>
<clipPath id="clip0">
<rect width="292" height="146" fill="white"/>
</clipPath>
</defs>
</svg>
