<svg width="270" height="42" viewBox="0 0 270 42" fill="none" xmlns="http://www.w3.org/2000/svg">
<g clip-path="url(#clip0)">
<path d="M23.7843 32.4999H9.4998C8.11917 32.4999 7 31.3359 7 29.9V27.3H26.1855L23.7843 32.4999Z" fill="#D3DCFB"/>
<path d="M39.501 11.7V22.623V29.9H9.4998C8.11917 29.9 7 28.7359 7 27.3V11.7L24.5005 5.19998L39.501 11.7Z" fill="#EBF5FC"/>
<path d="M11.4149 16.9H10.0869C9.76332 16.9 9.50098 16.6271 9.50098 16.2906V14.9094C9.50098 14.5728 9.76332 14.3 10.0869 14.3H11.4149C11.7385 14.3 12.0008 14.5728 12.0008 14.9094V16.2906C12.0008 16.6271 11.7385 16.9 11.4149 16.9Z" fill="#3C58A0"/>
<path d="M16.4142 16.9H15.0862C14.7626 16.9 14.5002 16.6271 14.5002 16.2906V14.9094C14.5002 14.5728 14.7626 14.3 15.0862 14.3H16.4142C16.7378 14.3 17.0001 14.5728 17.0001 14.9094V16.2906C17.0001 16.6271 16.7378 16.9 16.4142 16.9Z" fill="#3C58A0"/>
<path d="M21.4144 16.9H20.0864C19.7628 16.9 19.5005 16.6271 19.5005 16.2906V14.9094C19.5005 14.5728 19.7628 14.3 20.0864 14.3H21.4144C21.738 14.3 22.0004 14.5728 22.0004 14.9094V16.2906C22.0004 16.6271 21.7381 16.9 21.4144 16.9Z" fill="#3C58A0"/>
<path d="M26.4142 16.9H25.0862C24.7626 16.9 24.5002 16.6271 24.5002 16.2906V14.9094C24.5002 14.5728 24.7626 14.3 25.0862 14.3H26.4142C26.7378 14.3 27.0001 14.5728 27.0001 14.9094V16.2906C27.0001 16.6271 26.7378 16.9 26.4142 16.9Z" fill="#3C58A0"/>
<path d="M31.413 16.9H30.0849C29.7614 16.9 29.499 16.6271 29.499 16.2906V14.9094C29.499 14.5728 29.7614 14.3 30.0849 14.3H31.413C31.7365 14.3 31.9989 14.5728 31.9989 14.9094V16.2906C31.9989 16.6271 31.7366 16.9 31.413 16.9Z" fill="#3C58A0"/>
<path d="M36.413 16.9H35.0849C34.7614 16.9 34.499 16.6271 34.499 16.2906V14.9094C34.499 14.5728 34.7614 14.3 35.0849 14.3H36.413C36.7366 14.3 36.9989 14.5728 36.9989 14.9094V16.2906C36.9989 16.6271 36.7366 16.9 36.413 16.9Z" fill="#3C58A0"/>
<path d="M11.4149 22.1H10.0869C9.76332 22.1 9.50098 21.8271 9.50098 21.4906V20.1094C9.50098 19.7728 9.76332 19.5 10.0869 19.5H11.4149C11.7385 19.5 12.0008 19.7728 12.0008 20.1094V21.4906C12.0008 21.8272 11.7385 22.1 11.4149 22.1Z" fill="#3C58A0"/>
<path d="M16.4142 22.1H15.0862C14.7626 22.1 14.5002 21.8271 14.5002 21.4906V20.1094C14.5002 19.7728 14.7626 19.5 15.0862 19.5H16.4142C16.7378 19.5 17.0001 19.7728 17.0001 20.1094V21.4906C17.0001 21.8272 16.7378 22.1 16.4142 22.1Z" fill="#3C58A0"/>
<path d="M21.4144 22.1H20.0864C19.7628 22.1 19.5005 21.8271 19.5005 21.4906V20.1094C19.5005 19.7728 19.7628 19.5 20.0864 19.5H21.4144C21.738 19.5 22.0004 19.7728 22.0004 20.1094V21.4906C22.0004 21.8272 21.7381 22.1 21.4144 22.1Z" fill="#3C58A0"/>
<path d="M27.0001 22.1V20.15C27.0001 19.791 26.7203 19.5 26.3752 19.5H25.1252C24.78 19.5 24.5002 19.791 24.5002 20.15V21.45C24.5002 21.809 24.7801 22.1 25.1252 22.1H27.0001Z" fill="#3C58A0"/>
<path d="M11.4149 27.3H10.0869C9.76332 27.3 9.50098 27.0272 9.50098 26.6906V25.3094C9.50098 24.9729 9.76332 24.7 10.0869 24.7H11.4149C11.7385 24.7 12.0008 24.9729 12.0008 25.3094V26.6906C12.0008 27.0272 11.7385 27.3 11.4149 27.3Z" fill="#3C58A0"/>
<path d="M16.4142 27.3H15.0862C14.7626 27.3 14.5002 27.0272 14.5002 26.6906V25.3094C14.5002 24.9729 14.7626 24.7 15.0862 24.7H16.4142C16.7378 24.7 17.0001 24.9729 17.0001 25.3094V26.6906C17.0001 27.0272 16.7378 27.3 16.4142 27.3Z" fill="#3C58A0"/>
<path d="M21.4144 27.3H20.0864C19.7628 27.3 19.5005 27.0272 19.5005 26.6906V25.3094C19.5005 24.9729 19.7628 24.7 20.0864 24.7H21.4144C21.738 24.7 22.0004 24.9729 22.0004 25.3094V26.6906C22.0004 27.0272 21.7381 27.3 21.4144 27.3Z" fill="#3C58A0"/>
<path d="M36.3953 14.3H35.1027C35.0245 14.3 34.95 14.316 34.8813 14.3441C35.1051 14.436 35.2636 14.6623 35.2636 14.9277V16.2722C35.2636 16.5375 35.105 16.7639 34.8813 16.8558C34.95 16.884 35.0245 16.9 35.1027 16.9H36.3953C36.7287 16.9 36.999 16.6189 36.999 16.2722V14.9278C36.9989 14.5811 36.7287 14.3 36.3953 14.3V14.3Z" fill="#2A428C"/>
<path d="M31.3956 14.3H30.1029C30.0247 14.3 29.9502 14.316 29.8816 14.3441C30.1053 14.436 30.2638 14.6623 30.2638 14.9277V16.2722C30.2638 16.5375 30.1053 16.7639 29.8816 16.8558C29.9502 16.884 30.0247 16.9 30.1029 16.9H31.3956C31.729 16.9 31.9992 16.6189 31.9992 16.2722V14.9278C31.9992 14.5811 31.729 14.3 31.3956 14.3V14.3Z" fill="#2A428C"/>
<path d="M26.3968 14.3H25.1041C25.0259 14.3 24.9514 14.316 24.8828 14.3441C25.1066 14.436 25.2651 14.6623 25.2651 14.9277V16.2722C25.2651 16.5375 25.1066 16.7639 24.8828 16.8558C24.9514 16.884 25.0259 16.9 25.1041 16.9H26.3968C26.7302 16.9 27.0005 16.6189 27.0005 16.2722V14.9278C27.0004 14.5811 26.7301 14.3 26.3968 14.3V14.3Z" fill="#2A428C"/>
<path d="M21.3971 14.3H20.1044C20.0262 14.3 19.9517 14.316 19.8831 14.3441C20.1068 14.436 20.2654 14.6623 20.2654 14.9277V16.2722C20.2654 16.5375 20.1068 16.7639 19.8831 16.8558C19.9517 16.884 20.0262 16.9 20.1044 16.9H21.3971C21.7304 16.9 22.0007 16.6189 22.0007 16.2722V14.9278C22.0006 14.5811 21.7304 14.3 21.3971 14.3V14.3Z" fill="#2A428C"/>
<path d="M16.3968 14.3H15.1041C15.0259 14.3 14.9514 14.316 14.8828 14.3441C15.1066 14.436 15.265 14.6623 15.265 14.9277V16.2722C15.265 16.5375 15.1065 16.7639 14.8828 16.8558C14.9514 16.884 15.0259 16.9 15.1041 16.9H16.3968C16.7302 16.9 17.0004 16.6189 17.0004 16.2722V14.9278C17.0004 14.5811 16.7302 14.3 16.3968 14.3V14.3Z" fill="#2A428C"/>
<path d="M11.3975 14.3H10.1049C10.0267 14.3 9.95217 14.316 9.88354 14.3441C10.1073 14.436 10.2659 14.6623 10.2659 14.9277V16.2722C10.2659 16.5375 10.1073 16.7639 9.88354 16.8558C9.95217 16.884 10.0267 16.9 10.1049 16.9H11.3975C11.7309 16.9 12.0012 16.6189 12.0012 16.2722V14.9278C12.0011 14.5811 11.7309 14.3 11.3975 14.3V14.3Z" fill="#2A428C"/>
<path d="M11.3975 19.5H10.1049C10.0267 19.5 9.95217 19.516 9.88354 19.5441C10.1073 19.6359 10.2659 19.8623 10.2659 20.1277V21.4722C10.2659 21.7376 10.1073 21.964 9.88354 22.0558C9.95217 22.084 10.0267 22.1 10.1049 22.1H11.3975C11.7309 22.1 12.0012 21.819 12.0012 21.4723V20.1278C12.0011 19.781 11.7309 19.5 11.3975 19.5V19.5Z" fill="#2A428C"/>
<path d="M11.3975 24.7001H10.1049C10.0267 24.7001 9.95217 24.7161 9.88354 24.7442C10.1073 24.8361 10.2659 25.0625 10.2659 25.3278V26.6723C10.2659 26.9377 10.1073 27.1641 9.88354 27.256C9.95217 27.2842 10.0267 27.3002 10.1049 27.3002H11.3975C11.7309 27.3002 12.0012 27.0191 12.0012 26.6724V25.3279C12.0011 24.9811 11.7309 24.7001 11.3975 24.7001V24.7001Z" fill="#2A428C"/>
<path d="M16.3968 19.5H15.1041C15.0259 19.5 14.9514 19.516 14.8828 19.5441C15.1066 19.6359 15.265 19.8623 15.265 20.1277V21.4722C15.265 21.7376 15.1065 21.964 14.8828 22.0558C14.9514 22.084 15.0259 22.1 15.1041 22.1H16.3968C16.7302 22.1 17.0004 21.819 17.0004 21.4723V20.1278C17.0004 19.781 16.7302 19.5 16.3968 19.5V19.5Z" fill="#2A428C"/>
<path d="M16.3968 24.7001H15.1041C15.0259 24.7001 14.9514 24.7161 14.8828 24.7442C15.1066 24.8361 15.265 25.0625 15.265 25.3278V26.6723C15.265 26.9377 15.1065 27.1641 14.8828 27.256C14.9514 27.2842 15.0259 27.3002 15.1041 27.3002H16.3968C16.7302 27.3002 17.0004 27.0191 17.0004 26.6724V25.3279C17.0004 24.9811 16.7302 24.7001 16.3968 24.7001V24.7001Z" fill="#2A428C"/>
<path d="M21.3971 19.5H20.1044C20.0262 19.5 19.9517 19.516 19.8831 19.5441C20.1068 19.6359 20.2654 19.8623 20.2654 20.1277V21.4722C20.2654 21.7376 20.1068 21.964 19.8831 22.0558C19.9517 22.084 20.0262 22.1 20.1044 22.1H21.3971C21.7304 22.1 22.0007 21.819 22.0007 21.4723V20.1278C22.0006 19.781 21.7304 19.5 21.3971 19.5V19.5Z" fill="#2A428C"/>
<path d="M27.0005 22.0999V20.1277C27.0005 19.781 26.7302 19.5 26.3968 19.5H25.1041C25.0259 19.5 24.9514 19.516 24.8828 19.5441C25.1066 19.6359 25.2651 19.8623 25.2651 20.1277V21.4722C25.2651 21.7376 25.1066 21.964 24.8828 22.0558C24.9514 22.084 25.0259 22.1 25.1041 22.1H27.0005V22.0999Z" fill="#2A428C"/>
<path d="M21.3971 24.7001H20.1044C20.0262 24.7001 19.9517 24.7161 19.8831 24.7442C20.1068 24.8361 20.2654 25.0625 20.2654 25.3278V26.6723C20.2654 26.9377 20.1068 27.1641 19.8831 27.256C19.9517 27.2842 20.0262 27.3002 20.1044 27.3002H21.3971C21.7304 27.3002 22.0007 27.0191 22.0007 26.6724V25.3279C22.0006 24.9811 21.7304 24.7001 21.3971 24.7001V24.7001Z" fill="#2A428C"/>
<path d="M37.7642 10.9475V22.6229V29.9H39.5007V22.6229V11.7L37.7642 10.9475Z" fill="#D3DCFB"/>
<path d="M39.501 11.7V5.19994C39.501 3.76402 38.3818 2.60004 37.0012 2.60004H9.4998C8.11917 2.60004 7 3.76402 7 5.19994V11.7H39.501Z" fill="#FF4155"/>
<path d="M14.8771 5.78855H13.2499C12.9373 5.78855 12.6841 5.52507 12.6841 5.20005C12.6841 4.87502 12.9374 4.61154 13.2499 4.61154H14.8771C15.1897 4.61154 15.4429 4.87502 15.4429 5.20005C15.4429 5.52507 15.1896 5.78855 14.8771 5.78855V5.78855Z" fill="#E80054"/>
<path d="M18.8749 5.78855H17.2477C16.9351 5.78855 16.6819 5.52507 16.6819 5.20005C16.6819 4.87502 16.9352 4.61154 17.2477 4.61154H18.8749C19.1875 4.61154 19.4407 4.87502 19.4407 5.20005C19.4407 5.52507 19.1875 5.78855 18.8749 5.78855V5.78855Z" fill="#E80054"/>
<path d="M29.2522 5.78855H27.6249C27.3123 5.78855 27.0591 5.52507 27.0591 5.20005C27.0591 4.87502 27.3124 4.61154 27.6249 4.61154H29.2522C29.5647 4.61154 29.818 4.87502 29.818 5.20005C29.818 5.52507 29.5647 5.78855 29.2522 5.78855Z" fill="#E80054"/>
<path d="M33.2495 5.78855H31.6222C31.3097 5.78855 31.0564 5.52507 31.0564 5.20005C31.0564 4.87502 31.3097 4.61154 31.6222 4.61154H33.2495C33.5621 4.61154 33.8153 4.87502 33.8153 5.20005C33.8153 5.52507 33.562 5.78855 33.2495 5.78855Z" fill="#E80054"/>
<path d="M17.6246 4.87501C17.6246 5.77247 16.9251 6.49999 16.0622 6.49999C15.1993 6.49999 14.4998 5.77247 14.4998 4.87501V1.62498C14.4997 0.727519 15.1992 0 16.0621 0C16.925 0 17.6245 0.727519 17.6245 1.62498V4.87501H17.6246Z" fill="#EBF5FC"/>
<path d="M31.9999 4.87501C31.9999 5.77247 31.3004 6.49999 30.4375 6.49999C29.5746 6.49999 28.875 5.77247 28.875 4.87501V1.62498C28.875 0.727519 29.5745 0 30.4374 0C31.3003 0 31.9998 0.727519 31.9998 1.62498V4.87501H31.9999Z" fill="#EBF5FC"/>
<path d="M30.4377 0C30.1169 0 29.8189 0.100852 29.5708 0.273305C29.9901 0.564739 30.2664 1.06115 30.2664 1.62505V4.87501C30.2664 5.43883 29.9901 5.93532 29.5708 6.22676C29.8189 6.39913 30.1169 6.50006 30.4377 6.50006C31.3006 6.50006 32.0001 5.77254 32.0001 4.87508V1.62498C32.0001 0.727519 31.3006 0 30.4377 0V0Z" fill="#D3DCFB"/>
<path d="M16.0619 0C15.7411 0 15.4432 0.100852 15.1951 0.273305C15.6144 0.564739 15.8907 1.06115 15.8907 1.62505V4.87501C15.8907 5.43883 15.6144 5.93532 15.1951 6.22676C15.4431 6.39913 15.7411 6.50006 16.0619 6.50006C16.9248 6.50006 17.6243 5.77254 17.6243 4.87508V1.62498C17.6244 0.727519 16.9249 0 16.0619 0V0Z" fill="#D3DCFB"/>
<path d="M37.0009 2.60004H35.2649C36.6455 2.60004 37.7647 3.76402 37.7647 5.19994V11.7001H39.5006V5.20002C39.5007 3.7641 38.3814 2.60004 37.0009 2.60004V2.60004Z" fill="#E80054"/>
<path d="M7 8.51144H39.5011V9.68853H7V8.51144Z" fill="#E80054"/>
<path d="M32.6253 39C37.8028 39 42 34.6348 42 29.25C42 23.8652 37.8028 19.5 32.6253 19.5C27.4479 19.5 23.2507 23.8652 23.2507 29.25C23.2507 34.6348 27.4479 39 32.6253 39Z" fill="#4FABF7"/>
<path d="M32.625 36.4001C36.4218 36.4001 39.4997 33.1989 39.4997 29.2501C39.4997 25.3012 36.4218 22.1 32.625 22.1C28.8282 22.1 25.7502 25.3012 25.7502 29.2501C25.7502 33.1989 28.8282 36.4001 32.625 36.4001Z" fill="#EBF5FC"/>
<path d="M32.6254 28.5385C32.3128 28.5385 32.0596 28.275 32.0596 27.95V24.7C32.0596 24.3749 32.3129 24.1115 32.6254 24.1115C32.938 24.1115 33.1913 24.3749 33.1913 24.7V27.95C33.1913 28.275 32.9379 28.5385 32.6254 28.5385Z" fill="#3C58A0"/>
<path d="M35.7499 29.8385H33.8749C33.5623 29.8385 33.3091 29.5751 33.3091 29.25C33.3091 28.925 33.5624 28.6615 33.8749 28.6615H35.7499C36.0625 28.6615 36.3158 28.925 36.3158 29.25C36.3158 29.5751 36.0624 29.8385 35.7499 29.8385Z" fill="#3C58A0"/>
<path d="M32.6248 19.5C32.3322 19.5 32.0429 19.5147 31.7572 19.5419C36.5277 19.9974 40.264 24.1695 40.264 29.25C40.264 34.3304 36.5277 38.5026 31.7571 38.958C32.0429 38.9853 32.3322 39 32.6247 39C37.8022 39 41.9994 34.6347 41.9994 29.25C41.9994 23.8652 37.8022 19.5 32.6248 19.5Z" fill="#1886EA"/>
<path d="M32.6254 22.1C32.3317 22.1 32.0423 22.1193 31.7583 22.1565C35.1458 22.5999 37.766 25.6067 37.766 29.2501C37.766 32.8935 35.1458 35.9003 31.7583 36.3437C32.0423 36.3808 32.3317 36.4001 32.6254 36.4001C36.4222 36.4001 39.5001 33.1989 39.5001 29.2501C39.5001 25.3012 36.4222 22.1 32.6254 22.1V22.1Z" fill="#D3DCFB"/>
<path d="M32.6247 30.5501C33.3151 30.5501 33.8747 29.968 33.8747 29.25C33.8747 28.5321 33.3151 27.95 32.6247 27.95C31.9344 27.95 31.3748 28.5321 31.3748 29.25C31.3748 29.968 31.9344 30.5501 32.6247 30.5501Z" fill="#FFDD40"/>
<path d="M65.359 27.385C65.4497 27.589 65.495 27.7703 65.495 27.929C65.495 28.2463 65.3647 28.5183 65.104 28.745C64.8547 28.9603 64.5657 29.068 64.237 29.068C64.0217 29.068 63.8177 29.0113 63.625 28.898C63.4323 28.7733 63.285 28.592 63.183 28.354L62.282 26.348H56.519L55.618 28.354C55.516 28.592 55.3687 28.7733 55.176 28.898C54.9947 29.0113 54.7907 29.068 54.564 29.068C54.2353 29.068 53.9407 28.9603 53.68 28.745C53.4193 28.5183 53.289 28.2463 53.289 27.929C53.289 27.7703 53.3343 27.589 53.425 27.385L58.015 17.746C58.1397 17.474 58.3267 17.27 58.576 17.134C58.8253 16.9867 59.0917 16.913 59.375 16.913C59.6697 16.913 59.9417 16.9867 60.191 17.134C60.4403 17.2813 60.633 17.4853 60.769 17.746L65.359 27.385ZM57.42 24.342H61.381L59.409 19.922L57.42 24.342ZM73.9946 20.483C74.3799 20.483 74.6859 20.5963 74.9126 20.823C75.1506 21.0383 75.2696 21.3273 75.2696 21.69V28.099C75.2696 29.4477 74.8786 30.4677 74.0966 31.159C73.3146 31.8503 72.1699 32.196 70.6626 32.196C69.3933 32.196 68.3506 31.9693 67.5346 31.516C67.3306 31.4027 67.1719 31.261 67.0586 31.091C66.9453 30.9323 66.8886 30.751 66.8886 30.547C66.8886 30.2637 66.9566 30.0313 67.0926 29.85C67.2286 29.6687 67.4099 29.578 67.6366 29.578C67.7613 29.578 67.9086 29.6007 68.0786 29.646C68.2486 29.7027 68.4243 29.765 68.6056 29.833C68.9683 29.969 69.3026 30.0767 69.6086 30.156C69.9146 30.2353 70.2433 30.275 70.5946 30.275C71.3199 30.275 71.8583 30.1107 72.2096 29.782C72.5609 29.4533 72.7366 28.9547 72.7366 28.286V27.368C72.4986 27.7987 72.1416 28.1387 71.6656 28.388C71.1896 28.6373 70.6569 28.762 70.0676 28.762C69.3423 28.762 68.6963 28.592 68.1296 28.252C67.5743 27.912 67.1379 27.4303 66.8206 26.807C66.5033 26.1723 66.3446 25.4413 66.3446 24.614C66.3446 23.7867 66.5033 23.0613 66.8206 22.438C67.1379 21.8033 67.5743 21.316 68.1296 20.976C68.6963 20.6247 69.3423 20.449 70.0676 20.449C70.6456 20.449 71.1669 20.5737 71.6316 20.823C72.1076 21.061 72.4703 21.3953 72.7196 21.826V21.656C72.7196 21.2933 72.8329 21.01 73.0596 20.806C73.2976 20.5907 73.6093 20.483 73.9946 20.483ZM70.8156 26.807C71.4163 26.807 71.8809 26.6143 72.2096 26.229C72.5496 25.8437 72.7196 25.3053 72.7196 24.614C72.7196 23.9227 72.5496 23.3843 72.2096 22.999C71.8809 22.6023 71.4163 22.404 70.8156 22.404C70.2149 22.404 69.7446 22.6023 69.4046 22.999C69.0646 23.3843 68.8946 23.9227 68.8946 24.614C68.8946 25.3053 69.0646 25.8437 69.4046 26.229C69.7446 26.6143 70.2149 26.807 70.8156 26.807ZM83.9428 26.518C84.1695 26.518 84.3508 26.6087 84.4868 26.79C84.6341 26.9713 84.7078 27.2037 84.7078 27.487C84.7078 27.6797 84.6511 27.861 84.5378 28.031C84.4245 28.1897 84.2658 28.3257 84.0618 28.439C83.6765 28.643 83.2288 28.813 82.7188 28.949C82.2088 29.0737 81.7385 29.136 81.3078 29.136C80.4011 29.136 79.6078 28.9603 78.9278 28.609C78.2591 28.2577 77.7435 27.759 77.3808 27.113C77.0181 26.4557 76.8368 25.685 76.8368 24.801C76.8368 23.951 77.0125 23.1973 77.3638 22.54C77.7151 21.8827 78.2025 21.3727 78.8258 21.01C79.4491 20.636 80.1575 20.449 80.9508 20.449C81.7101 20.449 82.3731 20.619 82.9398 20.959C83.5178 21.2877 83.9655 21.7637 84.2828 22.387C84.6001 22.999 84.7588 23.7187 84.7588 24.546C84.7588 24.7953 84.6965 24.988 84.5718 25.124C84.4585 25.2487 84.2941 25.311 84.0788 25.311H79.3188C79.3981 25.9797 79.6021 26.467 79.9308 26.773C80.2595 27.0677 80.7298 27.215 81.3418 27.215C81.6705 27.215 81.9651 27.1753 82.2258 27.096C82.4865 27.0167 82.7755 26.909 83.0928 26.773C83.2515 26.705 83.4045 26.6483 83.5518 26.603C83.6991 26.5463 83.8295 26.518 83.9428 26.518ZM81.0188 22.217C80.5315 22.217 80.1405 22.3757 79.8458 22.693C79.5511 22.999 79.3755 23.4467 79.3188 24.036H82.5998C82.5658 23.4353 82.4128 22.982 82.1408 22.676C81.8801 22.37 81.5061 22.217 81.0188 22.217ZM91.5452 20.449C92.5426 20.449 93.2849 20.7437 93.7722 21.333C94.2596 21.911 94.5032 22.7893 94.5032 23.968V27.895C94.5032 28.269 94.3842 28.5637 94.1462 28.779C93.9196 28.9943 93.6079 29.102 93.2112 29.102C92.8146 29.102 92.5029 28.9943 92.2762 28.779C92.0496 28.5637 91.9362 28.269 91.9362 27.895V24.087C91.9362 23.5203 91.8286 23.1067 91.6132 22.846C91.4092 22.5853 91.0862 22.455 90.6442 22.455C90.1116 22.455 89.6809 22.625 89.3522 22.965C89.0349 23.305 88.8762 23.7583 88.8762 24.325V27.895C88.8762 28.269 88.7629 28.5637 88.5362 28.779C88.3096 28.9943 87.9979 29.102 87.6012 29.102C87.2046 29.102 86.8872 28.9943 86.6492 28.779C86.4226 28.5637 86.3092 28.269 86.3092 27.895V21.656C86.3092 21.3047 86.4282 21.0213 86.6662 20.806C86.9156 20.5907 87.2329 20.483 87.6182 20.483C87.9696 20.483 88.2529 20.5907 88.4682 20.806C88.6949 21.01 88.8082 21.2763 88.8082 21.605V21.843C89.1029 21.3897 89.4826 21.044 89.9472 20.806C90.4232 20.568 90.9559 20.449 91.5452 20.449ZM103.543 16.93C103.939 16.93 104.257 17.0377 104.495 17.253C104.744 17.4683 104.869 17.7517 104.869 18.103V27.895C104.869 28.2577 104.75 28.5523 104.512 28.779C104.285 28.9943 103.979 29.102 103.594 29.102C103.208 29.102 102.897 28.9943 102.659 28.779C102.432 28.5523 102.319 28.2577 102.319 27.895V27.759C102.069 28.1897 101.712 28.5297 101.248 28.779C100.794 29.017 100.279 29.136 99.7006 29.136C98.9866 29.136 98.3463 28.9547 97.7796 28.592C97.2243 28.218 96.7879 27.7023 96.4706 27.045C96.1646 26.3763 96.0116 25.6113 96.0116 24.75C96.0116 23.8887 96.1646 23.135 96.4706 22.489C96.7879 21.8317 97.2243 21.3273 97.7796 20.976C98.3349 20.6247 98.9753 20.449 99.7006 20.449C100.267 20.449 100.777 20.568 101.231 20.806C101.695 21.044 102.052 21.3783 102.302 21.809V18.052C102.302 17.712 102.415 17.44 102.642 17.236C102.868 17.032 103.169 16.93 103.543 16.93ZM100.449 27.181C101.049 27.181 101.508 26.977 101.826 26.569C102.154 26.1497 102.319 25.5547 102.319 24.784C102.319 24.0133 102.154 23.424 101.826 23.016C101.508 22.608 101.049 22.404 100.449 22.404C99.8479 22.404 99.3833 22.608 99.0546 23.016C98.7259 23.4127 98.5616 23.9907 98.5616 24.75C98.5616 25.5207 98.7259 26.1213 99.0546 26.552C99.3833 26.9713 99.8479 27.181 100.449 27.181ZM110.602 20.449C111.826 20.449 112.733 20.7493 113.322 21.35C113.912 21.9393 114.206 22.846 114.206 24.07V27.912C114.206 28.286 114.099 28.5807 113.883 28.796C113.668 29 113.368 29.102 112.982 29.102C112.62 29.102 112.325 28.9943 112.098 28.779C111.883 28.5523 111.775 28.2633 111.775 27.912V27.793C111.605 28.2123 111.322 28.541 110.925 28.779C110.529 29.017 110.064 29.136 109.531 29.136C108.965 29.136 108.449 29.0227 107.984 28.796C107.531 28.5693 107.168 28.252 106.896 27.844C106.636 27.436 106.505 26.9827 106.505 26.484C106.505 25.872 106.658 25.3903 106.964 25.039C107.282 24.6877 107.786 24.4327 108.477 24.274C109.169 24.1153 110.115 24.036 111.316 24.036H111.758V23.73C111.758 23.254 111.651 22.9083 111.435 22.693C111.231 22.4777 110.886 22.37 110.398 22.37C109.911 22.37 109.208 22.54 108.29 22.88C108.03 23.0047 107.809 23.067 107.627 23.067C107.378 23.067 107.18 22.982 107.032 22.812C106.885 22.6307 106.811 22.3983 106.811 22.115C106.811 21.8883 106.862 21.7013 106.964 21.554C107.066 21.4067 107.231 21.2707 107.457 21.146C107.854 20.9307 108.336 20.7607 108.902 20.636C109.48 20.5113 110.047 20.449 110.602 20.449ZM110.092 27.368C110.591 27.368 110.993 27.2037 111.299 26.875C111.605 26.535 111.758 26.0987 111.758 25.566V25.277H111.469C110.551 25.277 109.905 25.3507 109.531 25.498C109.169 25.6453 108.987 25.9117 108.987 26.297C108.987 26.6143 109.089 26.875 109.293 27.079C109.509 27.2717 109.775 27.368 110.092 27.368ZM126.411 20.449C127.317 20.449 128.014 20.7267 128.502 21.282C128.989 21.826 129.233 22.7213 129.233 23.968V27.895C129.233 28.2917 129.114 28.592 128.876 28.796C128.638 29 128.332 29.102 127.958 29.102C127.595 29.102 127.289 29 127.04 28.796C126.79 28.592 126.666 28.2917 126.666 27.895V23.934C126.666 23.39 126.569 23.0103 126.377 22.795C126.195 22.5683 125.912 22.455 125.527 22.455C125.051 22.455 124.671 22.6193 124.388 22.948C124.104 23.2767 123.963 23.7357 123.963 24.325V27.895C123.963 28.2917 123.844 28.592 123.606 28.796C123.368 29 123.062 29.102 122.688 29.102C122.325 29.102 122.019 29 121.77 28.796C121.52 28.592 121.396 28.2917 121.396 27.895V23.934C121.396 23.39 121.299 23.0103 121.107 22.795C120.925 22.5683 120.642 22.455 120.257 22.455C119.781 22.455 119.401 22.6193 119.118 22.948C118.834 23.2767 118.693 23.7357 118.693 24.325V27.895C118.693 28.2917 118.568 28.592 118.319 28.796C118.081 29 117.78 29.102 117.418 29.102C117.055 29.102 116.749 29 116.5 28.796C116.25 28.592 116.126 28.2917 116.126 27.895V21.656C116.126 21.282 116.25 20.993 116.5 20.789C116.76 20.585 117.072 20.483 117.435 20.483C117.775 20.483 118.058 20.585 118.285 20.789C118.511 20.9817 118.625 21.2537 118.625 21.605V21.775C118.897 21.3443 119.248 21.0157 119.679 20.789C120.121 20.5623 120.619 20.449 121.175 20.449C121.775 20.449 122.28 20.5737 122.688 20.823C123.107 21.061 123.43 21.452 123.657 21.996C123.917 21.52 124.286 21.146 124.762 20.874C125.249 20.5907 125.799 20.449 126.411 20.449ZM137.865 26.518C138.091 26.518 138.273 26.6087 138.409 26.79C138.556 26.9713 138.63 27.2037 138.63 27.487C138.63 27.6797 138.573 27.861 138.46 28.031C138.346 28.1897 138.188 28.3257 137.984 28.439C137.598 28.643 137.151 28.813 136.641 28.949C136.131 29.0737 135.66 29.136 135.23 29.136C134.323 29.136 133.53 28.9603 132.85 28.609C132.181 28.2577 131.665 27.759 131.303 27.113C130.94 26.4557 130.759 25.685 130.759 24.801C130.759 23.951 130.934 23.1973 131.286 22.54C131.637 21.8827 132.124 21.3727 132.748 21.01C133.371 20.636 134.079 20.449 134.873 20.449C135.632 20.449 136.295 20.619 136.862 20.959C137.44 21.2877 137.887 21.7637 138.205 22.387C138.522 22.999 138.681 23.7187 138.681 24.546C138.681 24.7953 138.618 24.988 138.494 25.124C138.38 25.2487 138.216 25.311 138.001 25.311H133.241C133.32 25.9797 133.524 26.467 133.853 26.773C134.181 27.0677 134.652 27.215 135.264 27.215C135.592 27.215 135.887 27.1753 136.148 27.096C136.408 27.0167 136.697 26.909 137.015 26.773C137.173 26.705 137.326 26.6483 137.474 26.603C137.621 26.5463 137.751 26.518 137.865 26.518ZM134.941 22.217C134.453 22.217 134.062 22.3757 133.768 22.693C133.473 22.999 133.297 23.4467 133.241 24.036H136.522C136.488 23.4353 136.335 22.982 136.063 22.676C135.802 22.37 135.428 22.217 134.941 22.217ZM145.467 20.449C146.464 20.449 147.207 20.7437 147.694 21.333C148.181 21.911 148.425 22.7893 148.425 23.968V27.895C148.425 28.269 148.306 28.5637 148.068 28.779C147.841 28.9943 147.53 29.102 147.133 29.102C146.736 29.102 146.425 28.9943 146.198 28.779C145.971 28.5637 145.858 28.269 145.858 27.895V24.087C145.858 23.5203 145.75 23.1067 145.535 22.846C145.331 22.5853 145.008 22.455 144.566 22.455C144.033 22.455 143.603 22.625 143.274 22.965C142.957 23.305 142.798 23.7583 142.798 24.325V27.895C142.798 28.269 142.685 28.5637 142.458 28.779C142.231 28.9943 141.92 29.102 141.523 29.102C141.126 29.102 140.809 28.9943 140.571 28.779C140.344 28.5637 140.231 28.269 140.231 27.895V21.656C140.231 21.3047 140.35 21.0213 140.588 20.806C140.837 20.5907 141.155 20.483 141.54 20.483C141.891 20.483 142.175 20.5907 142.39 20.806C142.617 21.01 142.73 21.2763 142.73 21.605V21.843C143.025 21.3897 143.404 21.044 143.869 20.806C144.345 20.568 144.878 20.449 145.467 20.449ZM154.982 27.232C155.322 27.2547 155.572 27.3397 155.73 27.487C155.889 27.6343 155.968 27.8497 155.968 28.133C155.968 28.4617 155.838 28.711 155.577 28.881C155.317 29.051 154.943 29.119 154.455 29.085L153.979 29.051C151.996 28.8923 151.004 27.8553 151.004 25.94V22.574H150.324C149.95 22.574 149.667 22.4947 149.474 22.336C149.282 22.166 149.185 21.928 149.185 21.622C149.185 21.3047 149.282 21.0667 149.474 20.908C149.667 20.738 149.95 20.653 150.324 20.653H151.004V19.327C151.004 18.953 151.118 18.6583 151.344 18.443C151.582 18.2277 151.9 18.12 152.296 18.12C152.693 18.12 153.005 18.2277 153.231 18.443C153.458 18.6583 153.571 18.953 153.571 19.327V20.653H154.761C155.532 20.653 155.917 20.976 155.917 21.622C155.917 21.928 155.821 22.166 155.628 22.336C155.436 22.4947 155.147 22.574 154.761 22.574H153.571V26.127C153.571 26.467 153.651 26.7277 153.809 26.909C153.968 27.079 154.2 27.1753 154.506 27.198L154.982 27.232ZM160.928 29.136C160.044 29.136 159.267 28.9603 158.599 28.609C157.93 28.2463 157.414 27.742 157.052 27.096C156.689 26.4387 156.508 25.668 156.508 24.784C156.508 23.9 156.689 23.135 157.052 22.489C157.414 21.8317 157.93 21.3273 158.599 20.976C159.267 20.6247 160.044 20.449 160.928 20.449C161.812 20.449 162.588 20.6247 163.257 20.976C163.925 21.3273 164.441 21.8317 164.804 22.489C165.166 23.135 165.348 23.9 165.348 24.784C165.348 25.668 165.166 26.4387 164.804 27.096C164.441 27.742 163.925 28.2463 163.257 28.609C162.588 28.9603 161.812 29.136 160.928 29.136ZM160.928 27.181C162.174 27.181 162.798 26.382 162.798 24.784C162.798 23.9793 162.633 23.3787 162.305 22.982C161.987 22.5853 161.528 22.387 160.928 22.387C159.681 22.387 159.058 23.186 159.058 24.784C159.058 26.382 159.681 27.181 160.928 27.181ZM173.103 29C172.706 29 172.4 28.8923 172.185 28.677C171.97 28.4617 171.862 28.1557 171.862 27.759V18.256C171.862 17.8593 171.97 17.5533 172.185 17.338C172.4 17.1227 172.706 17.015 173.103 17.015H176.52C177.823 17.015 178.945 17.253 179.886 17.729C180.827 18.205 181.546 18.8907 182.045 19.786C182.544 20.6813 182.793 21.7523 182.793 22.999C182.793 24.2457 182.544 25.3223 182.045 26.229C181.558 27.1243 180.844 27.81 179.903 28.286C178.962 28.762 177.835 29 176.52 29H173.103ZM176.333 26.858C178.883 26.858 180.158 25.5717 180.158 22.999C180.158 20.4377 178.883 19.157 176.333 19.157H174.514V26.858H176.333ZM191.322 26.518C191.548 26.518 191.73 26.6087 191.866 26.79C192.013 26.9713 192.087 27.2037 192.087 27.487C192.087 27.6797 192.03 27.861 191.917 28.031C191.803 28.1897 191.645 28.3257 191.441 28.439C191.055 28.643 190.608 28.813 190.098 28.949C189.588 29.0737 189.117 29.136 188.687 29.136C187.78 29.136 186.987 28.9603 186.307 28.609C185.638 28.2577 185.122 27.759 184.76 27.113C184.397 26.4557 184.216 25.685 184.216 24.801C184.216 23.951 184.391 23.1973 184.743 22.54C185.094 21.8827 185.581 21.3727 186.205 21.01C186.828 20.636 187.536 20.449 188.33 20.449C189.089 20.449 189.752 20.619 190.319 20.959C190.897 21.2877 191.344 21.7637 191.662 22.387C191.979 22.999 192.138 23.7187 192.138 24.546C192.138 24.7953 192.075 24.988 191.951 25.124C191.837 25.2487 191.673 25.311 191.458 25.311H186.698C186.777 25.9797 186.981 26.467 187.31 26.773C187.638 27.0677 188.109 27.215 188.721 27.215C189.049 27.215 189.344 27.1753 189.605 27.096C189.865 27.0167 190.154 26.909 190.472 26.773C190.63 26.705 190.783 26.6483 190.931 26.603C191.078 26.5463 191.208 26.518 191.322 26.518ZM188.398 22.217C187.91 22.217 187.519 22.3757 187.225 22.693C186.93 22.999 186.754 23.4467 186.698 24.036H189.979C189.945 23.4353 189.792 22.982 189.52 22.676C189.259 22.37 188.885 22.217 188.398 22.217ZM199.881 29C199.485 29 199.179 28.8923 198.963 28.677C198.748 28.4617 198.64 28.1557 198.64 27.759V18.256C198.64 17.8593 198.748 17.5533 198.963 17.338C199.179 17.1227 199.485 17.015 199.881 17.015H205.899C206.738 17.015 207.157 17.355 207.157 18.035C207.157 18.7263 206.738 19.072 205.899 19.072H201.224V21.877H205.559C206.398 21.877 206.817 22.2227 206.817 22.914C206.817 23.594 206.398 23.934 205.559 23.934H201.224V26.943H205.899C206.738 26.943 207.157 27.2887 207.157 27.98C207.157 28.66 206.738 29 205.899 29H199.881ZM211.675 29.136C210.984 29.136 210.383 29.0793 209.873 28.966C209.363 28.8527 208.916 28.6713 208.53 28.422C208.36 28.32 208.23 28.184 208.139 28.014C208.049 27.844 208.003 27.6513 208.003 27.436C208.003 27.1753 208.077 26.96 208.224 26.79C208.372 26.6087 208.553 26.518 208.768 26.518C208.916 26.518 209.063 26.5463 209.21 26.603C209.358 26.6483 209.511 26.705 209.669 26.773C209.987 26.9203 210.298 27.0393 210.604 27.13C210.91 27.2093 211.29 27.249 211.743 27.249C212.14 27.249 212.446 27.1867 212.661 27.062C212.888 26.9373 213.001 26.7673 213.001 26.552C213.001 26.3933 212.95 26.2687 212.848 26.178C212.758 26.076 212.582 25.9853 212.321 25.906C212.061 25.8267 211.647 25.7303 211.08 25.617C210.072 25.4243 209.346 25.1353 208.904 24.75C208.462 24.3647 208.241 23.8263 208.241 23.135C208.241 22.625 208.394 22.166 208.7 21.758C209.018 21.35 209.448 21.0327 209.992 20.806C210.536 20.568 211.148 20.449 211.828 20.449C212.316 20.449 212.792 20.5113 213.256 20.636C213.721 20.7607 214.135 20.9363 214.497 21.163C214.849 21.3783 215.024 21.6957 215.024 22.115C215.024 22.387 214.951 22.6137 214.803 22.795C214.656 22.9763 214.475 23.067 214.259 23.067C213.999 23.067 213.687 22.965 213.324 22.761C213.041 22.6137 212.78 22.506 212.542 22.438C212.316 22.3587 212.044 22.319 211.726 22.319C211.375 22.319 211.097 22.387 210.893 22.523C210.689 22.6477 210.587 22.8233 210.587 23.05C210.587 23.288 210.706 23.4693 210.944 23.594C211.182 23.7187 211.641 23.8433 212.321 23.968C213.081 24.1153 213.676 24.2967 214.106 24.512C214.537 24.716 214.849 24.9767 215.041 25.294C215.234 25.6113 215.33 26.0137 215.33 26.501C215.33 27.3057 214.996 27.946 214.327 28.422C213.67 28.898 212.786 29.136 211.675 29.136ZM221.966 20.449C222.68 20.449 223.314 20.636 223.87 21.01C224.436 21.3727 224.873 21.8883 225.179 22.557C225.496 23.2143 225.655 23.9737 225.655 24.835C225.655 25.6963 225.496 26.4557 225.179 27.113C224.873 27.759 224.442 28.2577 223.887 28.609C223.331 28.9603 222.691 29.136 221.966 29.136C221.399 29.136 220.883 29.0227 220.419 28.796C219.965 28.558 219.614 28.2293 219.365 27.81V31.023C219.365 31.363 219.251 31.635 219.025 31.839C218.798 32.043 218.498 32.145 218.124 32.145C217.727 32.145 217.404 32.0373 217.155 31.822C216.917 31.6067 216.798 31.3233 216.798 30.972V21.69C216.798 21.3273 216.911 21.0383 217.138 20.823C217.376 20.5963 217.687 20.483 218.073 20.483C218.458 20.483 218.764 20.5963 218.991 20.823C219.217 21.0383 219.331 21.3273 219.331 21.69V21.826C219.58 21.3953 219.937 21.061 220.402 20.823C220.866 20.5737 221.388 20.449 221.966 20.449ZM221.218 27.181C221.818 27.181 222.283 26.9827 222.612 26.586C222.94 26.178 223.105 25.5943 223.105 24.835C223.105 24.0643 222.94 23.4693 222.612 23.05C222.283 22.6193 221.818 22.404 221.218 22.404C220.617 22.404 220.152 22.6137 219.824 23.033C219.495 23.441 219.331 24.0303 219.331 24.801C219.331 25.5603 219.495 26.1497 219.824 26.569C220.152 26.977 220.617 27.181 221.218 27.181ZM230.98 20.449C232.204 20.449 233.111 20.7493 233.7 21.35C234.29 21.9393 234.584 22.846 234.584 24.07V27.912C234.584 28.286 234.477 28.5807 234.261 28.796C234.046 29 233.746 29.102 233.36 29.102C232.998 29.102 232.703 28.9943 232.476 28.779C232.261 28.5523 232.153 28.2633 232.153 27.912V27.793C231.983 28.2123 231.7 28.541 231.303 28.779C230.907 29.017 230.442 29.136 229.909 29.136C229.343 29.136 228.827 29.0227 228.362 28.796C227.909 28.5693 227.546 28.252 227.274 27.844C227.014 27.436 226.883 26.9827 226.883 26.484C226.883 25.872 227.036 25.3903 227.342 25.039C227.66 24.6877 228.164 24.4327 228.855 24.274C229.547 24.1153 230.493 24.036 231.694 24.036H232.136V23.73C232.136 23.254 232.029 22.9083 231.813 22.693C231.609 22.4777 231.264 22.37 230.776 22.37C230.289 22.37 229.586 22.54 228.668 22.88C228.408 23.0047 228.187 23.067 228.005 23.067C227.756 23.067 227.558 22.982 227.41 22.812C227.263 22.6307 227.189 22.3983 227.189 22.115C227.189 21.8883 227.24 21.7013 227.342 21.554C227.444 21.4067 227.609 21.2707 227.835 21.146C228.232 20.9307 228.714 20.7607 229.28 20.636C229.858 20.5113 230.425 20.449 230.98 20.449ZM230.47 27.368C230.969 27.368 231.371 27.2037 231.677 26.875C231.983 26.535 232.136 26.0987 232.136 25.566V25.277H231.847C230.929 25.277 230.283 25.3507 229.909 25.498C229.547 25.6453 229.365 25.9117 229.365 26.297C229.365 26.6143 229.467 26.875 229.671 27.079C229.887 27.2717 230.153 27.368 230.47 27.368ZM242.896 26.467C243.111 26.467 243.287 26.5633 243.423 26.756C243.57 26.9487 243.644 27.1923 243.644 27.487C243.644 27.9063 243.468 28.218 243.117 28.422C242.505 28.8187 241.751 29.051 240.856 29.119L240.788 29.714C240.969 29.6913 241.094 29.68 241.162 29.68C241.513 29.68 241.808 29.7877 242.046 30.003C242.295 30.2183 242.42 30.5017 242.42 30.853C242.42 31.295 242.221 31.652 241.825 31.924C241.428 32.2073 240.861 32.349 240.125 32.349C239.649 32.349 239.246 32.2923 238.918 32.179C238.691 32.0997 238.578 31.9297 238.578 31.669C238.578 31.5103 238.629 31.3743 238.731 31.261C238.833 31.1477 238.957 31.1137 239.105 31.159C239.49 31.2497 239.807 31.295 240.057 31.295C240.578 31.295 240.839 31.1477 240.839 30.853C240.839 30.751 240.799 30.6717 240.72 30.615C240.652 30.5583 240.555 30.53 240.431 30.53C240.329 30.53 240.198 30.547 240.04 30.581C239.881 30.615 239.762 30.632 239.683 30.632C239.569 30.632 239.479 30.598 239.411 30.53C239.354 30.4733 239.331 30.3883 239.343 30.275L239.496 29.068C238.442 28.9093 237.609 28.456 236.997 27.708C236.396 26.9487 236.096 25.991 236.096 24.835C236.096 23.9623 236.277 23.1973 236.64 22.54C237.014 21.8713 237.535 21.3557 238.204 20.993C238.872 20.6303 239.643 20.449 240.516 20.449C240.969 20.449 241.422 20.5113 241.876 20.636C242.34 20.7607 242.754 20.9363 243.117 21.163C243.468 21.3783 243.644 21.6957 243.644 22.115C243.644 22.4097 243.576 22.6533 243.44 22.846C243.304 23.0273 243.122 23.118 242.896 23.118C242.748 23.118 242.607 23.0953 242.471 23.05C242.346 22.9933 242.176 22.914 241.961 22.812C241.723 22.6873 241.507 22.591 241.315 22.523C241.133 22.455 240.924 22.421 240.686 22.421C240.051 22.421 239.564 22.625 239.224 23.033C238.895 23.4297 238.731 24.0133 238.731 24.784C238.731 25.5547 238.895 26.144 239.224 26.552C239.564 26.96 240.051 27.164 240.686 27.164C240.924 27.164 241.133 27.1357 241.315 27.079C241.496 27.011 241.717 26.909 241.978 26.773C242.193 26.671 242.363 26.5973 242.488 26.552C242.612 26.4953 242.748 26.467 242.896 26.467ZM248.916 29.136C248.032 29.136 247.256 28.9603 246.587 28.609C245.918 28.2463 245.403 27.742 245.04 27.096C244.677 26.4387 244.496 25.668 244.496 24.784C244.496 23.9 244.677 23.135 245.04 22.489C245.403 21.8317 245.918 21.3273 246.587 20.976C247.256 20.6247 248.032 20.449 248.916 20.449C249.8 20.449 250.576 20.6247 251.245 20.976C251.914 21.3273 252.429 21.8317 252.792 22.489C253.155 23.135 253.336 23.9 253.336 24.784C253.336 25.668 253.155 26.4387 252.792 27.096C252.429 27.742 251.914 28.2463 251.245 28.609C250.576 28.9603 249.8 29.136 248.916 29.136ZM248.916 27.181C250.163 27.181 250.786 26.382 250.786 24.784C250.786 23.9793 250.622 23.3787 250.293 22.982C249.976 22.5853 249.517 22.387 248.916 22.387C247.669 22.387 247.046 23.186 247.046 24.784C247.046 26.382 247.669 27.181 248.916 27.181ZM258.06 29.136C257.369 29.136 256.768 29.0793 256.258 28.966C255.748 28.8527 255.3 28.6713 254.915 28.422C254.745 28.32 254.615 28.184 254.524 28.014C254.433 27.844 254.388 27.6513 254.388 27.436C254.388 27.1753 254.462 26.96 254.609 26.79C254.756 26.6087 254.938 26.518 255.153 26.518C255.3 26.518 255.448 26.5463 255.595 26.603C255.742 26.6483 255.895 26.705 256.054 26.773C256.371 26.9203 256.683 27.0393 256.989 27.13C257.295 27.2093 257.675 27.249 258.128 27.249C258.525 27.249 258.831 27.1867 259.046 27.062C259.273 26.9373 259.386 26.7673 259.386 26.552C259.386 26.3933 259.335 26.2687 259.233 26.178C259.142 26.076 258.967 25.9853 258.706 25.906C258.445 25.8267 258.032 25.7303 257.465 25.617C256.456 25.4243 255.731 25.1353 255.289 24.75C254.847 24.3647 254.626 23.8263 254.626 23.135C254.626 22.625 254.779 22.166 255.085 21.758C255.402 21.35 255.833 21.0327 256.377 20.806C256.921 20.568 257.533 20.449 258.213 20.449C258.7 20.449 259.176 20.5113 259.641 20.636C260.106 20.7607 260.519 20.9363 260.882 21.163C261.233 21.3783 261.409 21.6957 261.409 22.115C261.409 22.387 261.335 22.6137 261.188 22.795C261.041 22.9763 260.859 23.067 260.644 23.067C260.383 23.067 260.072 22.965 259.709 22.761C259.426 22.6137 259.165 22.506 258.927 22.438C258.7 22.3587 258.428 22.319 258.111 22.319C257.76 22.319 257.482 22.387 257.278 22.523C257.074 22.6477 256.972 22.8233 256.972 23.05C256.972 23.288 257.091 23.4693 257.329 23.594C257.567 23.7187 258.026 23.8433 258.706 23.968C259.465 24.1153 260.06 24.2967 260.491 24.512C260.922 24.716 261.233 24.9767 261.426 25.294C261.619 25.6113 261.715 26.0137 261.715 26.501C261.715 27.3057 261.381 27.946 260.712 28.422C260.055 28.898 259.171 29.136 258.06 29.136Z" fill="white"/>
</g>
<defs>
<clipPath id="clip0">
<rect width="270" height="42" fill="white"/>
</clipPath>
</defs>
</svg>
