<svg width="292" height="186" viewBox="0 0 292 186" fill="none" xmlns="http://www.w3.org/2000/svg">
<path d="M144.171 71.6665H117.643C115.078 71.6665 113 69.4578 113 66.7334V61.7999H148.631L144.171 71.6665Z" fill="#D3DCFB"/>
<path d="M173.36 32.2001V52.9256V66.7333H117.643C115.078 66.7333 113 64.5245 113 61.8V32.2001L145.501 19.8666L173.36 32.2001Z" fill="#EBF5FC"/>
<path d="M121.199 42.0666H118.732C118.132 42.0666 117.644 41.5489 117.644 40.9103V38.2896C117.644 37.651 118.132 37.1333 118.732 37.1333H121.199C121.8 37.1333 122.287 37.651 122.287 38.2896V40.9103C122.287 41.5489 121.8 42.0666 121.199 42.0666Z" fill="#3C58A0"/>
<path d="M130.483 42.0665H128.017C127.416 42.0665 126.929 41.5488 126.929 40.9103V38.2895C126.929 37.651 127.416 37.1332 128.017 37.1332H130.483C131.084 37.1332 131.572 37.651 131.572 38.2895V40.9103C131.572 41.5488 131.084 42.0665 130.483 42.0665Z" fill="#3C58A0"/>
<path d="M139.769 42.0665H137.303C136.702 42.0665 136.215 41.5488 136.215 40.9103V38.2895C136.215 37.651 136.702 37.1332 137.303 37.1332H139.769C140.37 37.1332 140.858 37.651 140.858 38.2895V40.9103C140.858 41.5488 140.37 42.0665 139.769 42.0665Z" fill="#3C58A0"/>
<path d="M149.055 42.0665H146.589C145.988 42.0665 145.5 41.5488 145.5 40.9103V38.2895C145.5 37.651 145.988 37.1332 146.589 37.1332H149.055C149.656 37.1332 150.143 37.651 150.143 38.2895V40.9103C150.143 41.5488 149.656 42.0665 149.055 42.0665Z" fill="#3C58A0"/>
<path d="M158.338 42.0665H155.872C155.271 42.0665 154.784 41.5488 154.784 40.9103V38.2895C154.784 37.651 155.271 37.1332 155.872 37.1332H158.338C158.939 37.1332 159.426 37.651 159.426 38.2895V40.9103C159.426 41.5488 158.939 42.0665 158.338 42.0665Z" fill="#3C58A0"/>
<path d="M167.624 42.0665H165.158C164.557 42.0665 164.07 41.5488 164.07 40.9103V38.2895C164.07 37.651 164.557 37.1332 165.158 37.1332H167.624C168.225 37.1332 168.712 37.651 168.712 38.2895V40.9103C168.712 41.5488 168.225 42.0665 167.624 42.0665Z" fill="#3C58A0"/>
<path d="M121.199 51.9333H118.732C118.131 51.9333 117.644 51.4156 117.644 50.777V48.1563C117.644 47.5177 118.131 47 118.732 47H121.199C121.8 47 122.287 47.5177 122.287 48.1563V50.777C122.287 51.4157 121.8 51.9333 121.199 51.9333Z" fill="#3C58A0"/>
<path d="M130.483 51.9333H128.017C127.416 51.9333 126.929 51.4156 126.929 50.777V48.1563C126.929 47.5177 127.416 47 128.017 47H130.483C131.084 47 131.572 47.5177 131.572 48.1563V50.777C131.572 51.4157 131.084 51.9333 130.483 51.9333Z" fill="#3C58A0"/>
<path d="M139.769 51.9333H137.303C136.702 51.9333 136.215 51.4156 136.215 50.777V48.1563C136.215 47.5177 136.702 47 137.303 47H139.769C140.37 47 140.858 47.5177 140.858 48.1563V50.777C140.858 51.4157 140.37 51.9333 139.769 51.9333Z" fill="#3C58A0"/>
<path d="M150.143 51.9333V48.2333C150.143 47.5521 149.624 47 148.983 47H146.661C146.02 47 145.5 47.5521 145.5 48.2333V50.7C145.5 51.3812 146.02 51.9333 146.661 51.9333H150.143Z" fill="#3C58A0"/>
<path d="M121.199 61.8H118.732C118.131 61.8 117.644 61.2823 117.644 60.6438V58.023C117.644 57.3845 118.131 56.8668 118.732 56.8668H121.199C121.8 56.8668 122.287 57.3845 122.287 58.023V60.6438C122.287 61.2823 121.8 61.8 121.199 61.8Z" fill="#3C58A0"/>
<path d="M130.483 61.8H128.017C127.416 61.8 126.929 61.2823 126.929 60.6438V58.023C126.929 57.3845 127.416 56.8668 128.017 56.8668H130.483C131.084 56.8668 131.572 57.3845 131.572 58.023V60.6438C131.572 61.2823 131.084 61.8 130.483 61.8Z" fill="#3C58A0"/>
<path d="M139.769 61.8H137.303C136.702 61.8 136.215 61.2823 136.215 60.6438V58.023C136.215 57.3845 136.702 56.8668 137.303 56.8668H139.769C140.37 56.8668 140.858 57.3845 140.858 58.023V60.6438C140.858 61.2823 140.37 61.8 139.769 61.8Z" fill="#3C58A0"/>
<path d="M167.592 37.1333H165.191C165.046 37.1333 164.908 37.1637 164.78 37.217C165.196 37.3913 165.49 37.8208 165.49 38.3244V40.8754C165.49 41.3789 165.196 41.8085 164.78 41.9828C164.908 42.0362 165.046 42.0666 165.191 42.0666H167.592C168.211 42.0666 168.713 41.5333 168.713 40.8755V38.3245C168.713 37.6666 168.211 37.1333 167.592 37.1333V37.1333Z" fill="#2A428C"/>
<path d="M158.306 37.1333H155.906C155.76 37.1333 155.622 37.1637 155.495 37.217C155.91 37.3913 156.204 37.8208 156.204 38.3244V40.8754C156.204 41.3789 155.91 41.8085 155.495 41.9828C155.622 42.0362 155.76 42.0666 155.906 42.0666H158.306C158.926 42.0666 159.427 41.5333 159.427 40.8755V38.3245C159.427 37.6666 158.926 37.1333 158.306 37.1333V37.1333Z" fill="#2A428C"/>
<path d="M149.023 37.1333H146.622C146.477 37.1333 146.338 37.1637 146.211 37.217C146.626 37.3913 146.921 37.8208 146.921 38.3244V40.8754C146.921 41.3789 146.626 41.8085 146.211 41.9828C146.338 42.0362 146.477 42.0666 146.622 42.0666H149.023C149.642 42.0666 150.144 41.5333 150.144 40.8755V38.3245C150.144 37.6666 149.642 37.1333 149.023 37.1333V37.1333Z" fill="#2A428C"/>
<path d="M139.737 37.1333H137.337C137.191 37.1333 137.053 37.1637 136.926 37.217C137.341 37.3913 137.636 37.8208 137.636 38.3244V40.8754C137.636 41.3789 137.341 41.8085 136.926 41.9828C137.053 42.0362 137.191 42.0666 137.337 42.0666H139.737C140.356 42.0666 140.858 41.5333 140.858 40.8755V38.3245C140.858 37.6666 140.356 37.1333 139.737 37.1333V37.1333Z" fill="#2A428C"/>
<path d="M130.452 37.1333H128.051C127.906 37.1333 127.767 37.1637 127.64 37.217C128.055 37.3913 128.35 37.8208 128.35 38.3244V40.8754C128.35 41.3789 128.055 41.8085 127.64 41.9828C127.767 42.0362 127.906 42.0666 128.051 42.0666H130.452C131.071 42.0666 131.573 41.5333 131.573 40.8755V38.3245C131.573 37.6666 131.071 37.1333 130.452 37.1333V37.1333Z" fill="#2A428C"/>
<path d="M121.166 37.1333H118.766C118.621 37.1333 118.482 37.1637 118.355 37.217C118.77 37.3913 119.065 37.8208 119.065 38.3244V40.8754C119.065 41.3789 118.77 41.8085 118.355 41.9828C118.482 42.0362 118.621 42.0666 118.766 42.0666H121.166C121.786 42.0666 122.288 41.5333 122.288 40.8755V38.3245C122.287 37.6666 121.785 37.1333 121.166 37.1333V37.1333Z" fill="#2A428C"/>
<path d="M121.166 46.9999H118.766C118.621 46.9999 118.482 47.0303 118.355 47.0836C118.77 47.2579 119.065 47.6875 119.065 48.191V50.7422C119.065 51.2457 118.77 51.6753 118.355 51.8496C118.482 51.903 118.621 51.9334 118.766 51.9334H121.166C121.786 51.9334 122.288 51.4001 122.288 50.7423V48.1912C122.287 47.5333 121.785 46.9999 121.166 46.9999V46.9999Z" fill="#2A428C"/>
<path d="M121.166 56.8669H118.766C118.621 56.8669 118.482 56.8972 118.355 56.9505C118.77 57.1248 119.065 57.5544 119.065 58.0579V60.6091C119.065 61.1126 118.77 61.5422 118.355 61.7165C118.482 61.7699 118.621 61.8003 118.766 61.8003H121.166C121.786 61.8003 122.288 61.267 122.288 60.6092V58.0581C122.287 57.4 121.785 56.8669 121.166 56.8669V56.8669Z" fill="#2A428C"/>
<path d="M130.452 46.9999H128.051C127.906 46.9999 127.767 47.0303 127.64 47.0836C128.055 47.2579 128.35 47.6875 128.35 48.191V50.7422C128.35 51.2457 128.055 51.6753 127.64 51.8496C127.767 51.903 127.906 51.9334 128.051 51.9334H130.452C131.071 51.9334 131.573 51.4001 131.573 50.7423V48.1912C131.573 47.5333 131.071 46.9999 130.452 46.9999V46.9999Z" fill="#2A428C"/>
<path d="M130.452 56.8669H128.051C127.906 56.8669 127.767 56.8972 127.64 56.9505C128.055 57.1248 128.35 57.5544 128.35 58.0579V60.6091C128.35 61.1126 128.055 61.5422 127.64 61.7165C127.767 61.7699 127.906 61.8003 128.051 61.8003H130.452C131.071 61.8003 131.573 61.267 131.573 60.6092V58.0581C131.573 57.4 131.071 56.8669 130.452 56.8669V56.8669Z" fill="#2A428C"/>
<path d="M139.737 46.9999H137.337C137.191 46.9999 137.053 47.0303 136.926 47.0836C137.341 47.2579 137.636 47.6875 137.636 48.191V50.7422C137.636 51.2457 137.341 51.6753 136.926 51.8496C137.053 51.903 137.191 51.9334 137.337 51.9334H139.737C140.356 51.9334 140.858 51.4001 140.858 50.7423V48.1912C140.858 47.5333 140.356 46.9999 139.737 46.9999V46.9999Z" fill="#2A428C"/>
<path d="M150.144 51.9332V48.191C150.144 47.5331 149.642 46.9999 149.023 46.9999H146.622C146.477 46.9999 146.338 47.0303 146.211 47.0836C146.626 47.2579 146.921 47.6875 146.921 48.191V50.7422C146.921 51.2457 146.626 51.6753 146.211 51.8496C146.338 51.903 146.477 51.9334 146.622 51.9334H150.144V51.9332Z" fill="#2A428C"/>
<path d="M139.737 56.8669H137.337C137.191 56.8669 137.053 56.8972 136.926 56.9505C137.341 57.1248 137.636 57.5544 137.636 58.0579V60.6091C137.636 61.1126 137.341 61.5422 136.926 61.7165C137.053 61.7699 137.191 61.8003 137.337 61.8003H139.737C140.356 61.8003 140.858 61.267 140.858 60.6092V58.0581C140.858 57.4 140.356 56.8669 139.737 56.8669V56.8669Z" fill="#2A428C"/>
<path d="M170.134 30.7722V52.9256V66.7334H173.359V52.9256V32.2L170.134 30.7722Z" fill="#D3DCFB"/>
<path d="M173.36 32.2V19.8666C173.36 17.142 171.281 14.9334 168.717 14.9334H117.643C115.078 14.9334 113 17.142 113 19.8666V32.2H173.36Z" fill="#FF4155"/>
<path d="M127.629 20.9834H124.607C124.026 20.9834 123.556 20.4835 123.556 19.8668C123.556 19.2501 124.027 18.7501 124.607 18.7501H127.629C128.209 18.7501 128.68 19.2501 128.68 19.8668C128.68 20.4835 128.209 20.9834 127.629 20.9834V20.9834Z" fill="#E80054"/>
<path d="M135.053 20.9835H132.031C131.451 20.9835 130.98 20.4835 130.98 19.8668C130.98 19.2501 131.451 18.7502 132.031 18.7502H135.053C135.634 18.7502 136.104 19.2501 136.104 19.8668C136.104 20.4835 135.634 20.9835 135.053 20.9835V20.9835Z" fill="#E80054"/>
<path d="M154.325 20.9835H151.303C150.723 20.9835 150.252 20.4835 150.252 19.8668C150.252 19.2501 150.723 18.7502 151.303 18.7502H154.325C154.906 18.7502 155.376 19.2501 155.376 19.8668C155.376 20.4835 154.906 20.9835 154.325 20.9835Z" fill="#E80054"/>
<path d="M161.75 20.9835H158.728C158.147 20.9835 157.677 20.4835 157.677 19.8668C157.677 19.2501 158.147 18.7502 158.728 18.7502H161.75C162.33 18.7502 162.801 19.2501 162.801 19.8668C162.801 20.4835 162.33 20.9835 161.75 20.9835Z" fill="#E80054"/>
<path d="M132.731 19.25C132.731 20.9529 131.432 22.3333 129.83 22.3333C128.227 22.3333 126.928 20.9529 126.928 19.25V13.0833C126.928 11.3804 128.227 10 129.83 10C131.432 10 132.731 11.3804 132.731 13.0833V19.25H132.731Z" fill="#EBF5FC"/>
<path d="M159.429 19.25C159.429 20.9529 158.13 22.3333 156.527 22.3333C154.924 22.3333 153.625 20.9529 153.625 19.25V13.0833C153.625 11.3804 154.924 10 156.527 10C158.129 10 159.429 11.3804 159.429 13.0833V19.25H159.429Z" fill="#EBF5FC"/>
<path d="M156.527 10C155.931 10 155.378 10.1914 154.917 10.5186C155.696 11.0716 156.209 12.0135 156.209 13.0834V19.25C156.209 20.3198 155.696 21.2619 154.917 21.8149C155.378 22.1419 155.931 22.3335 156.527 22.3335C158.13 22.3335 159.429 20.953 159.429 19.2502V13.0833C159.429 11.3804 158.13 10 156.527 10V10Z" fill="#D3DCFB"/>
<path d="M129.829 10C129.234 10 128.68 10.1914 128.219 10.5186C128.998 11.0716 129.511 12.0135 129.511 13.0834V19.25C129.511 20.3198 128.998 21.2619 128.219 21.8149C128.68 22.1419 129.234 22.3335 129.829 22.3335C131.432 22.3335 132.731 20.953 132.731 19.2502V13.0833C132.731 11.3804 131.432 10 129.829 10V10Z" fill="#D3DCFB"/>
<path d="M168.716 14.9334H165.492C168.056 14.9334 170.135 17.142 170.135 19.8666V32.2002H173.359V19.8667C173.359 17.1421 171.28 14.9334 168.716 14.9334V14.9334Z" fill="#E80054"/>
<path d="M113 26.1499H173.36V28.3833H113V26.1499Z" fill="#E80054"/>
<path d="M160.59 84C170.205 84 178 75.7173 178 65.5C178 55.2827 170.205 46.9999 160.59 46.9999C150.975 46.9999 143.18 55.2827 143.18 65.5C143.18 75.7173 150.975 84 160.59 84Z" fill="#4FABF7"/>
<path d="M160.59 79.0669C167.641 79.0669 173.357 72.9929 173.357 65.5002C173.357 58.0074 167.641 51.9334 160.59 51.9334C153.538 51.9334 147.822 58.0074 147.822 65.5002C147.822 72.9929 153.538 79.0669 160.59 79.0669Z" fill="#EBF5FC"/>
<path d="M160.59 64.15C160.01 64.15 159.54 63.65 159.54 63.0333V56.8666C159.54 56.2499 160.01 55.7499 160.59 55.7499C161.171 55.7499 161.641 56.2499 161.641 56.8666V63.0333C161.641 63.65 161.171 64.15 160.59 64.15Z" fill="#3C58A0"/>
<path d="M166.393 66.6167H162.911C162.33 66.6167 161.86 66.1168 161.86 65.5001C161.86 64.8834 162.33 64.3834 162.911 64.3834H166.393C166.973 64.3834 167.444 64.8834 167.444 65.5001C167.444 66.1168 166.973 66.6167 166.393 66.6167Z" fill="#3C58A0"/>
<path d="M160.589 46.9999C160.046 46.9999 159.509 47.0278 158.978 47.0796C167.838 47.9437 174.777 55.8602 174.777 65.5C174.777 75.1398 167.838 83.0562 158.978 83.9204C159.509 83.9721 160.046 84 160.589 84C170.204 84 177.999 75.7172 177.999 65.5C177.999 55.2828 170.205 46.9999 160.589 46.9999Z" fill="#1886EA"/>
<path d="M160.59 51.9334C160.045 51.9334 159.507 51.97 158.98 52.0405C165.271 52.8818 170.137 58.5871 170.137 65.5002C170.137 72.4132 165.271 78.1185 158.98 78.9598C159.507 79.0303 160.045 79.0669 160.59 79.0669C167.642 79.0669 173.358 72.9928 173.358 65.5002C173.358 58.0075 167.642 51.9334 160.59 51.9334V51.9334Z" fill="#D3DCFB"/>
<path d="M160.589 67.9668C161.871 67.9668 162.911 66.8624 162.911 65.5001C162.911 64.1378 161.871 63.0334 160.589 63.0334C159.307 63.0334 158.268 64.1378 158.268 65.5001C158.268 66.8624 159.307 67.9668 160.589 67.9668Z" fill="#FFDD40"/>
<path d="M89.864 134C88.744 134 87.88 133.696 87.272 133.088C86.664 132.48 86.36 131.616 86.36 130.496V103.616C86.36 102.496 86.696 101.6 87.368 100.928C88.04 100.256 88.952 99.92 90.104 99.92C91.256 99.92 92.168 100.256 92.84 100.928C93.512 101.6 93.848 102.496 93.848 103.616V127.904H106.136C108.472 127.904 109.64 128.928 109.64 130.976C109.64 132.992 108.472 134 106.136 134H89.864ZM123.924 134.384C121.429 134.384 119.237 133.888 117.349 132.896C115.461 131.872 114.005 130.448 112.98 128.624C111.957 126.768 111.445 124.592 111.445 122.096C111.445 119.6 111.957 117.44 112.98 115.616C114.005 113.76 115.461 112.336 117.349 111.344C119.237 110.352 121.429 109.856 123.924 109.856C126.421 109.856 128.613 110.352 130.501 111.344C132.389 112.336 133.845 113.76 134.869 115.616C135.893 117.44 136.405 119.6 136.405 122.096C136.405 124.592 135.893 126.768 134.869 128.624C133.845 130.448 132.389 131.872 130.501 132.896C128.613 133.888 126.421 134.384 123.924 134.384ZM123.924 128.864C127.445 128.864 129.205 126.608 129.205 122.096C129.205 119.824 128.741 118.128 127.813 117.008C126.917 115.888 125.621 115.328 123.924 115.328C120.405 115.328 118.645 117.584 118.645 122.096C118.645 126.608 120.405 128.864 123.924 128.864ZM161.263 109.952C162.351 109.952 163.215 110.272 163.855 110.912C164.527 111.52 164.863 112.336 164.863 113.36V131.456C164.863 135.264 163.759 138.144 161.551 140.096C159.343 142.048 156.111 143.024 151.855 143.024C148.271 143.024 145.327 142.384 143.023 141.104C142.447 140.784 141.999 140.384 141.679 139.904C141.359 139.456 141.199 138.944 141.199 138.368C141.199 137.568 141.391 136.912 141.775 136.4C142.159 135.888 142.671 135.632 143.311 135.632C143.663 135.632 144.079 135.696 144.559 135.824C145.039 135.984 145.535 136.16 146.047 136.352C147.071 136.736 148.015 137.04 148.879 137.264C149.743 137.488 150.671 137.6 151.663 137.6C153.711 137.6 155.231 137.136 156.223 136.208C157.215 135.28 157.711 133.872 157.711 131.984V129.392C157.039 130.608 156.031 131.568 154.687 132.272C153.343 132.976 151.839 133.328 150.175 133.328C148.127 133.328 146.303 132.848 144.703 131.888C143.135 130.928 141.903 129.568 141.007 127.808C140.111 126.016 139.663 123.952 139.663 121.616C139.663 119.28 140.111 117.232 141.007 115.472C141.903 113.68 143.135 112.304 144.703 111.344C146.303 110.352 148.127 109.856 150.175 109.856C151.807 109.856 153.279 110.208 154.591 110.912C155.935 111.584 156.959 112.528 157.663 113.744V113.264C157.663 112.24 157.983 111.44 158.623 110.864C159.295 110.256 160.175 109.952 161.263 109.952ZM152.287 127.808C153.983 127.808 155.295 127.264 156.223 126.176C157.183 125.088 157.663 123.568 157.663 121.616C157.663 119.664 157.183 118.144 156.223 117.056C155.295 115.936 153.983 115.376 152.287 115.376C150.591 115.376 149.263 115.936 148.303 117.056C147.343 118.144 146.863 119.664 146.863 121.616C146.863 123.568 147.343 125.088 148.303 126.176C149.263 127.264 150.591 127.808 152.287 127.808ZM174.088 134.288C173.032 134.288 172.152 134 171.448 133.424C170.776 132.848 170.44 132 170.44 130.88V113.36C170.44 112.24 170.792 111.392 171.496 110.816C172.2 110.24 173.064 109.952 174.088 109.952C175.112 109.952 175.96 110.24 176.632 110.816C177.336 111.392 177.688 112.24 177.688 113.36V130.88C177.688 132 177.336 132.848 176.632 133.424C175.96 134 175.112 134.288 174.088 134.288ZM174.088 106.112C172.808 106.112 171.8 105.792 171.064 105.152C170.328 104.48 169.96 103.584 169.96 102.464C169.96 101.344 170.328 100.464 171.064 99.824C171.8 99.184 172.808 98.864 174.088 98.864C175.336 98.864 176.328 99.2 177.064 99.872C177.832 100.512 178.216 101.376 178.216 102.464C178.216 103.584 177.848 104.48 177.112 105.152C176.376 105.792 175.368 106.112 174.088 106.112ZM198.021 109.856C200.837 109.856 202.933 110.688 204.309 112.352C205.685 113.984 206.373 116.464 206.373 119.792V130.88C206.373 131.936 206.037 132.768 205.365 133.376C204.725 133.984 203.845 134.288 202.725 134.288C201.605 134.288 200.725 133.984 200.085 133.376C199.445 132.768 199.125 131.936 199.125 130.88V120.128C199.125 118.528 198.821 117.36 198.213 116.624C197.637 115.888 196.725 115.52 195.477 115.52C193.973 115.52 192.757 116 191.829 116.96C190.933 117.92 190.485 119.2 190.485 120.8V130.88C190.485 131.936 190.165 132.768 189.525 133.376C188.885 133.984 188.005 134.288 186.885 134.288C185.765 134.288 184.869 133.984 184.197 133.376C183.557 132.768 183.237 131.936 183.237 130.88V113.264C183.237 112.272 183.573 111.472 184.245 110.864C184.949 110.256 185.845 109.952 186.933 109.952C187.925 109.952 188.725 110.256 189.333 110.864C189.973 111.44 190.293 112.192 190.293 113.12V113.792C191.125 112.512 192.197 111.536 193.509 110.864C194.853 110.192 196.357 109.856 198.021 109.856Z" fill="#0091EA"/>
</svg>
